Coordinates
version=1
nRows=7
nColumns=40
inDegrees=yes

Units are S.I. units (second, meters, Newtons, ...)
Angles are in degrees.

endheader
time	pelvis_tilt	pelvis_list	pelvis_rotation	pelvis_tx	pelvis_ty	pelvis_tz	hip_flexion_r	hip_adduction_r	hip_rotation_r	knee_angle_r	knee_angle_r_beta	ankle_angle_r	subtalar_angle_r	mtp_angle_r	hip_flexion_l	hip_adduction_l	hip_rotation_l	knee_angle_l	knee_angle_l_beta	ankle_angle_l	subtalar_angle_l	mtp_angle_l	lumbar_extension	lumbar_bending	lumbar_rotation	arm_flex_r	arm_add_r	arm_rot_r	elbow_flex_r	pro_sup_r	wrist_flex_r	wrist_dev_r	arm_flex_l	arm_add_l	arm_rot_l	elbow_flex_l	pro_sup_l	wrist_flex_l	wrist_dev_l
      5.93250000	     -3.71120188	     -5.53765855	     -2.75374359	      1.03542490	      0.92979484	      0.49162746	     16.06245236	      2.70636502	    -12.92591337	     14.89513383	     14.89513383	      4.64729608	      3.60509418	     -6.37658520	      8.86228628	    -13.13636297	     -7.85214998	     37.96676986	     37.96676986	     12.92707144	    -16.15466545	     -2.48908580	     -8.74148370	      6.23472552	      2.69591793	      4.80533356	    -13.05407514	     -7.01015876	     37.79644207	     46.07377013	      0.00000000	      0.00000000	     13.68596650	    -14.40670283	    -12.91957858	     57.05288996	     47.30519751	      0.00000000	      0.00000000
      5.94542857	     -3.58749469	     -5.52251707	     -2.37513884	      1.03607771	      0.93002401	      0.49375862	     15.59513629	      2.70494897	    -13.34368085	     15.09139765	     15.09139765	      5.17799354	      3.79382279	     -6.64119588	     10.73931831	    -13.51741135	     -6.67604130	     41.80431660	     41.80431660	     11.54224002	    -17.03522376	     -2.20008526	     -8.74482270	      6.27664347	      2.60111143	      6.13337896	    -13.48998105	     -6.99446134	     40.15741669	     45.97866131	      0.00000000	      0.00000000	     13.48081292	    -14.05723938	    -12.41629855	     53.61166059	     47.20548221	      0.00000000	      0.00000000
      5.95835714	     -3.46920482	     -5.63122918	     -1.96559883	      1.03646314	      0.93005906	      0.49574799	     15.08064620	      2.87114627	    -13.69659110	     15.15301010	     15.15301010	      5.58260091	      3.77734967	     -6.83878957	     12.82024171	    -13.96754407	     -5.38428716	     45.83111984	     45.83111984	     10.66524531	    -17.43510747	     -0.44291887	     -8.83123693	      6.45278614	      3.12623565	      6.92036949	    -14.32669575	     -6.75915720	     42.87855082	     45.85123172	      0.00000000	      0.00000000	     13.61859857	    -13.39099396	    -11.47005886	     50.44319561	     47.06410353	      0.00000000	      0.00000000
      5.97128571	     -3.35069880	     -5.76194926	     -1.53685977	      1.03669508	      0.92990183	      0.49758750	     14.63711465	      3.05382792	    -13.99184290	     15.32796697	     15.32796697	      6.03764248	      3.60491494	     -7.02825841	     14.87671136	    -14.38982745	     -4.14020065	     49.55488450	     49.55488450	      9.32725279	    -17.79214670	      0.11025517	     -8.90262618	      6.60999760	      2.84161641	      8.78711214	    -14.71370986	     -6.84594190	     44.35159393	     45.80886474	      0.00000000	      0.00000000	     12.64242407	    -13.12763626	    -11.07257774	     48.87275197	     46.99591352	      0.00000000	      0.00000000
      5.98421429	     -3.19517570	     -5.84225182	     -1.10981704	      1.03675248	      0.92974154	      0.49914868	     14.22937360	      3.17224536	    -14.17518787	     15.61576646	     15.61576646	      6.48534422	      3.26666309	     -7.20948692	     16.98509678	    -14.55652148	     -2.73073144	     53.23289909	     53.23289909	      9.17842366	    -17.77485866	      3.75478012	     -9.03663696	      6.76286356	      3.27680039	      9.68109958	    -15.75107038	     -6.10244159	     47.33037381	     45.65876520	      0.00000000	      0.00000000	     12.85611441	    -12.57466614	     -9.94695811	     45.24442810	     46.83493593	      0.00000000	      0.00000000
      5.99714286	     -3.07576432	     -5.92650463	     -0.69890014	      1.03673178	      0.92946738	      0.50065112	     13.88330725	      3.30280598	    -14.30952281	     15.92638959	     15.92638959	      6.95135954	      2.87408203	     -7.34390828	     18.94752044	    -14.75539116	     -1.58555628	     56.27255699	     56.27255699	      8.08518149	    -17.89089277	      4.41462029	     -9.13101055	      6.87749201	      2.96180542	     11.62114254	    -16.11798084	     -6.19230758	     49.02713316	     45.61074734	      0.00000000	      0.00000000	     11.80555324	    -12.33753152	     -9.52498159	     43.67288767	     46.76222146	      0.00000000	      0.00000000
      6.01007143	     -2.92705876	     -5.99685761	     -0.30583333	      1.03661827	      0.92927757	      0.50200900	     13.52926249	      3.43887960	    -14.29717133	     16.25887920	     16.25887920	      7.45079670	      2.28117017	     -7.26543005	     20.86158671	    -14.81427338	     -0.43785267	     59.02296077	     59.02296077	      8.02946128	    -17.76152507	      7.21617001	     -9.28207866	      6.97530458	      3.39685161	     12.58510967	    -17.18964566	     -5.50295273	     52.09935187	     45.47466076	      0.00000000	      0.00000000	     11.77799758	    -11.82682710	     -8.37765472	     40.45508292	     46.60088449	      0.00000000	      0.00000000
